<svg t="1676974779322" class="icon" viewBox="0 0 1024 1024" version="1.1" xmlns="http://www.w3.org/2000/svg" p-id="7027" id="mx_n_1676974779322" data-darkreader-inline-fill="" width="200" height="200"><path d="M480.362667 256.064L457.429333 184.96a65.258667 65.258667 0 0 0-62.165333-45.44H100.778667a65.664 65.664 0 0 0-65.664 65.642667v646.506666A65.664 65.664 0 0 0 100.778667 917.333333h801.109333a65.642667 65.642667 0 0 0 65.664-65.664V321.706667a65.664 65.664 0 0 0-65.664-65.642667h-421.546667zM100.778667 205.162667h294.485333l16.32 50.901333H100.778667V205.162667z m-3.392 127.68a21.333333 21.333333 0 0 1 21.333333-21.333334h766.784a21.333333 21.333333 0 0 1 21.333333 21.333334v503.722666a21.333333 21.333333 0 0 1-21.333333 21.333334H118.72a21.333333 21.333333 0 0 1-21.333333-21.333334V332.842667zM539.989333 384h-77.397333c-12.288 0-22.421333 8.682667-24.234667 20.266667l-5.781333 41.984c-7.253333 3.264-14.101333 7.253333-21.333333 11.946666l-40.874667-15.936a24.32 24.32 0 0 0-8.682667-1.450666c-8.682667 0-17.002667 4.352-20.970666 11.946666l-38.698667 65.152a23.616 23.616 0 0 0 5.781333 30.762667l34.346667 26.048-0.064 1.088c-0.341333 3.925333-0.64 7.552-0.64 10.858667 0 3.626667 0 7.594667 0.725333 11.946666l-34.346666 26.048c-9.408 7.253333-11.946667 19.904-5.802667 30.762667l38.336 64.789333a24.746667 24.746667 0 0 0 29.653333 10.858667l40.874667-15.936a138.666667 138.666667 0 0 0 21.333333 11.946667l6.144 41.621333c1.450667 11.584 11.946667 20.629333 24.234667 20.629333h77.397333c12.288 0 22.4-8.682667 24.234667-20.266666l6.144-41.984c7.232-3.264 14.08-7.253333 21.333333-11.946667l40.853334 15.936c2.901333 1.066667 5.802667 1.450667 8.682666 1.450667 8.682667 0 17.002667-4.352 20.992-11.946667l38.677334-65.493333a23.552 23.552 0 0 0-6.144-30.421334l-34.346667-26.048c0.362667-3.626667 0.725333-7.594667 0.725333-11.946666 0-4.352-0.362667-8.32-0.725333-11.946667l34.346667-26.048c9.408-7.253333 11.946667-19.904 5.802666-30.762667l-38.336-64.789333a24.746667 24.746667 0 0 0-29.653333-10.858667l-40.874667 15.936a138.816 138.816 0 0 0-21.333333-11.946666l-6.144-41.621334A24.213333 24.213333 0 0 0 539.989333 384z m51.072 201.173333a91.413333 91.413333 0 0 1-91.370666 91.434667 91.413333 91.413333 0 0 1-91.370667-91.434667 91.413333 91.413333 0 0 1 91.370667-91.434666 91.413333 91.413333 0 0 1 91.392 91.434666z" fill="#1A5FC7" p-id="7028" data-darkreader-inline-fill="" style="--darkreader-inline-fill:#154c9f;"></path></svg>